<?xml version="1.0" encoding="utf-8"?>
<!-- Generator: Adobe Illustrator 24.1.2, SVG Export Plug-In . SVG Version: 6.00 Build 0)  -->
<svg version="1.1" id="Layer_1" xmlns="http://www.w3.org/2000/svg" xmlns:xlink="http://www.w3.org/1999/xlink" x="0px" y="0px"
	 viewBox="0 0 281.536 86.895" enable-background="new 0 0 281.536 86.895" xml:space="preserve">
<g>
	<path fill="#FFFFFF" d="M108.492,65.463l5.252-11.796c5.01,3.313,12.119,5.574,18.664,5.574c6.625,0,9.211-1.858,9.211-4.605
		c0-8.968-32.157-2.424-32.157-23.431c0-10.099,8.241-18.34,25.047-18.34c7.353,0,14.947,1.696,20.521,4.928l-4.928,11.877
		c-5.414-2.908-10.746-4.362-15.675-4.362c-6.706,0-9.13,2.262-9.13,5.09c0,8.646,32.076,2.182,32.076,23.026
		c0,9.857-8.241,18.26-25.047,18.26C123.036,71.684,113.825,69.18,108.492,65.463z"/>
	<path fill="#FFFFFF" d="M161.717,13.996h26.743c18.745,0,31.592,10.907,31.592,28.278s-12.847,28.278-31.592,28.278h-26.743V13.996
		z M187.814,57.787c9.614,0,16.078-5.736,16.078-15.513s-6.464-15.513-16.078-15.513h-10.1v31.025H187.814z"/>
	<path fill="#FFFFFF" d="M278.536,13.996v56.557h-15.998V48.496h-21.814v22.057h-15.998V13.996h15.998v21.249h21.814V13.996H278.536
		z"/>
</g>
<path fill="#F78739" d="M98,14.799c-0.039-0.069-0.08-0.141-0.119-0.208l-0.243-0.414c-0.06-0.101-0.118-0.197-0.178-0.295
	c-0.089-0.135-0.182-0.277-0.275-0.418c0.235,0.384,0.471,0.773,0.703,1.168c-0.5-0.711-1.471-1.067-2.96-1.008
	c-3.201,0.126-8.348,2.131-14.626,5.501c-4.49,5.117-10.528,11.083-17.838,17.481C47.971,49.295,32.074,60.54,20.184,66.941
	c-5.163,5.899-8.24,10.651-8.792,13.606c1.053,1.169,2.14,2.288,3.265,3.342c9.248-0.365,34.714-16.39,56.88-35.793
	C89.862,32.056,100.193,18.731,98,14.799z"/>
<path fill="#FFFFFF" d="M76.564,15.324c-12.673-12.673-33.221-12.673-45.894,0l3.724,3.723l1.096,1.096l2.941,2.941
	c8.387-8.387,21.985-8.387,30.372,0c8.387,8.387,8.387,21.985,0,30.372l4.038,4.038v0l3.723,3.724
	C89.238,48.545,89.238,27.997,76.564,15.324z"/>
<path fill="#FFFFFF" d="M82.666,67.319L82.666,67.319l-6.101-6.101c-12.673,12.673-33.221,12.673-45.894,0
	c-12.674-12.673-12.674-33.221,0-45.894l-2.538-2.538l-3.563-3.563L21.356,6.01c-17.817,17.817-17.817,46.705,0,64.522
	c17.817,17.817,46.705,17.817,64.522,0L82.666,67.319z"/>
<g>
	<path fill="none" d="M20.184,66.941c11.89-6.401,27.787-17.646,42.282-30.334c7.31-6.399,13.347-12.364,17.838-17.481
		c-11.859,6.365-27.761,17.605-42.255,30.292C30.715,55.837,24.667,61.819,20.184,66.941z"/>
	<path fill="#F7AC39" d="M2.369,71.484c0.015,0.024,0.029,0.047,0.043,0.071c0.026,0.039,0.054,0.08,0.08,0.12
		c-0.032-0.052-0.065-0.104-0.097-0.156C2.387,71.507,2.377,71.496,2.369,71.484z"/>
	<path fill="#F7AC39" d="M6.241,77.014c0,0.001,0.001,0.001,0.001,0.002c-0.87-1.189-1.941-2.667-2.887-4.046
		C4.285,74.361,5.313,75.87,6.241,77.014z"/>
	<path fill="#F7AC39" d="M10.713,81.949c0.043,0.042,0.086,0.084,0.13,0.126c-0.643-0.672-1.333-1.405-2.014-2.146
		C9.463,80.627,10.104,81.314,10.713,81.949z"/>
	<path fill="#F7AC39" d="M11.392,80.547c-0.194,1.037-0.076,1.852,0.372,2.418c0.119,0.113,0.237,0.225,0.357,0.337
		c0.556,0.421,1.386,0.632,2.537,0.587C13.532,82.835,12.445,81.716,11.392,80.547z"/>
	<path fill="#F7AC39" d="M93.264,7.825c0.657,0.898,1.415,1.952,2.157,3.017C94.685,9.773,93.934,8.714,93.264,7.825z"/>
	<path fill="#F7AC39" d="M89.114,3.183c-0.057-0.058-0.114-0.115-0.172-0.172c0.645,0.69,1.366,1.465,2.081,2.254
		C90.376,4.538,89.722,3.822,89.114,3.183z"/>
	<path fill="#F7AC39" d="M11.392,80.547c0.552-2.955,3.629-7.707,8.792-13.606c4.483-5.122,10.531-11.104,17.865-17.523
		c14.493-12.687,30.396-23.927,42.255-30.292c6.278-3.37,11.425-5.375,14.626-5.501c1.489-0.059,2.46,0.297,2.96,1.008
		c-0.232-0.395-0.468-0.784-0.703-1.168c-0.04-0.065-0.08-0.131-0.12-0.196c-0.504-0.771-1.069-1.601-1.645-2.426
		c-0.743-1.065-1.5-2.119-2.157-3.017c-0.131-0.158-0.271-0.323-0.412-0.488C92.795,7.27,92.736,7.2,92.676,7.13
		c-0.515-0.599-1.08-1.234-1.652-1.866C90.309,4.476,89.588,3.7,88.943,3.01c-0.081-0.086-0.165-0.176-0.243-0.26
		c-0.546-0.537-1.457-0.796-2.755-0.744C76.662,2.373,51.1,18.458,28.85,37.934C10.47,54.023,0.106,67.388,2.288,71.345
		c0.036,0.058,0.071,0.116,0.107,0.174c0.032,0.052,0.065,0.104,0.097,0.156c0.023,0.037,0.046,0.073,0.068,0.11
		c0.249,0.38,0.515,0.777,0.795,1.185c0.946,1.378,2.017,2.856,2.887,4.046c0,0,0,0,0,0.001c0.754,0.893,1.662,1.91,2.585,2.913
		c0.682,0.741,1.371,1.474,2.014,2.146c0.217,0.227,0.428,0.446,0.633,0.656c0.098,0.094,0.19,0.184,0.292,0.28l0.117,0.11
		c0.019,0.018,0.041,0.037,0.061,0.056c-0.069-0.065-0.124-0.139-0.182-0.212C11.316,82.399,11.198,81.584,11.392,80.547z"/>
</g>
</svg>
